# xmcd
#
# Track frame offsets: 
#        150
#        9443
#        22406
#        40878
#        56452
#        70947
#        87435
#        101269
#        116028
#        125730
#        139162
#        154380
#        168172
#        179853
#        194548
#        210815
#
# Disc length: 2976 seconds
#
# Revision: 1
# Processed by: cddbd v1.5.2PL0 Copyright (c) Steve Scherf et al.
# Submitted via: ExactAudioCopy v1.0b3
#
DISCID=e60b9e10
DTITLE=Various Artist - The Soul Fire Box Set [CD2]
DYEAR=2013
DGENRE=Funk
TTITLE0=Fabulous Three - Whitesands
TTITLE1=Bronx River Parkway - Quiénes Que Resoverlo
TTITLE2=Fabulous Three - Odyssey Revised
TTITLE3=Bama and The Family - Don't Think... Do
TTITLE4=Lee Fields and The Explorers - Problems
TTITLE5=Zafari - Addis Ababa
TTITLE6=Raindeer Runners - Super Smooth
TTITLE7=Lee Fields and The Explorers - Ain't It Funky Now
TTITLE8=Fabulous Three - Nightbird
TTITLE9=The Explorers - Clap Your Hands
TTITLE10=Lee Fields and The Explorers - You Made A New Man Out Of Me
TTITLE11=Third Point - Majestic Soul
TTITLE12=Fabulous Three - Pep's
TTITLE13=The Detroit Sex Machines - The Funky Crawl
TTITLE14=Lee Fields and The Explorers - Soul Dynamite
TTITLE15=WQLJ - Nothin' Doin' But Waitin' On Leon
EXTD=
EXTT0=
EXTT1=
EXTT2=
EXTT3=
EXTT4=
EXTT5=
EXTT6=
EXTT7=
EXTT8=
EXTT9=
EXTT10=
EXTT11=
EXTT12=
EXTT13=
EXTT14=
EXTT15=
PLAYORDER=
